<svg width="123" height="95" viewBox="0 0 123 95" fill="none" xmlns="http://www.w3.org/2000/svg">
<path d="M90.5464 89.7339C90.33 89.9055 90.2937 90.22 90.4652 90.4364C90.6368 90.6527 90.9513 90.6891 91.1677 90.5175L90.5464 89.7339ZM32.6591 30.0141L32.4383 29.5655L32.6591 30.0141ZM6.27212 43.0792C6.18692 43.3418 6.33079 43.6239 6.59346 43.709L10.8739 45.0974C11.1366 45.1826 11.4186 45.0388 11.5038 44.7761C11.589 44.5134 11.4451 44.2314 11.1825 44.1462L7.3776 42.9121L8.61172 39.1072C8.69692 38.8446 8.55305 38.5626 8.29038 38.4774C8.02771 38.3922 7.7457 38.536 7.6605 38.7987L6.27212 43.0792ZM91.1677 90.5175C105.663 79.0256 113.002 67.6468 114.856 57.4508C116.713 47.2302 113.043 38.2772 105.698 31.7218C91.0451 18.6428 61.8185 15.1053 32.4383 29.5655L32.8799 30.4627C62.0168 16.1223 90.7734 19.7407 105.032 32.4678C112.144 38.8154 115.661 47.428 113.872 57.272C112.078 67.1408 104.936 78.3259 90.5464 89.7339L91.1677 90.5175ZM32.4383 29.5655C17.7505 36.7944 13.193 39.384 6.52051 42.7881L6.97495 43.6788C13.6762 40.2601 18.1967 37.6893 32.8799 30.4627L32.4383 29.5655Z" fill="#391401"/>
</svg>
